<svg width="98" height="47" viewBox="0 0 98 47" fill="none" xmlns="http://www.w3.org/2000/svg">
<path d="M17.4143 38.672C12.0063 38.672 7.87825 37.168 5.03025 34.16C2.21425 31.152 0.80625 26.88 0.80625 21.344C0.80625 18.592 1.23825 16.144 2.10225 14C2.96625 11.824 4.15025 10 5.65425 8.528C7.15825 7.024 8.95025 5.888 11.0303 5.12C13.1103 4.352 15.3663 3.968 17.7983 3.968C19.2063 3.968 20.4863 4.08 21.6383 4.304C22.7903 4.496 23.7983 4.736 24.6623 5.024C25.5263 5.28 26.2463 5.552 26.8223 5.84C27.3983 6.128 27.8143 6.352 28.0703 6.512L25.9103 12.56C24.8863 12.016 23.6863 11.552 22.3103 11.168C20.9663 10.784 19.4303 10.592 17.7023 10.592C16.5503 10.592 15.4143 10.784 14.2943 11.168C13.2063 11.552 12.2303 12.176 11.3663 13.04C10.5343 13.872 9.86225 14.96 9.35025 16.304C8.83825 17.648 8.58225 19.28 8.58225 21.2C8.58225 22.736 8.74225 24.176 9.06225 25.52C9.41425 26.832 9.95825 27.968 10.6943 28.928C11.4623 29.888 12.4543 30.656 13.6703 31.232C14.8863 31.776 16.3583 32.048 18.0863 32.048C19.1743 32.048 20.1503 31.984 21.0143 31.856C21.8783 31.728 22.6463 31.584 23.3183 31.424C23.9903 31.232 24.5823 31.024 25.0943 30.8C25.6063 30.576 26.0703 30.368 26.4863 30.176L28.5503 36.176C27.4943 36.816 26.0063 37.392 24.0863 37.904C22.1663 38.416 19.9423 38.672 17.4143 38.672ZM42.9713 38.48C40.8913 38.448 39.1953 38.224 37.8833 37.808C36.6033 37.392 35.5793 36.816 34.8113 36.08C34.0753 35.312 33.5633 34.4 33.2753 33.344C33.0193 32.256 32.8913 31.04 32.8913 29.696V1.904L40.0433 0.751999V28.256C40.0433 28.896 40.0913 29.472 40.1873 29.984C40.2833 30.496 40.4593 30.928 40.7153 31.28C41.0033 31.632 41.4033 31.92 41.9153 32.144C42.4273 32.368 43.1153 32.512 43.9793 32.576L42.9713 38.48ZM58.4299 33.008C59.1339 33.008 59.8059 32.992 60.4459 32.96C61.0859 32.928 61.5979 32.88 61.9819 32.816V27.392C61.6939 27.328 61.2619 27.264 60.6859 27.2C60.1099 27.136 59.5819 27.104 59.1019 27.104C58.4299 27.104 57.7899 27.152 57.1819 27.248C56.6059 27.312 56.0939 27.456 55.6459 27.68C55.1979 27.904 54.8459 28.208 54.5899 28.592C54.3339 28.976 54.2059 29.456 54.2059 30.032C54.2059 31.152 54.5739 31.936 55.3099 32.384C56.0779 32.8 57.1179 33.008 58.4299 33.008ZM57.8539 12.08C59.9659 12.08 61.7259 12.32 63.1339 12.8C64.5419 13.28 65.6619 13.968 66.4939 14.864C67.3579 15.76 67.9659 16.848 68.3179 18.128C68.6699 19.408 68.8459 20.832 68.8459 22.4V37.28C67.8219 37.504 66.3979 37.76 64.5739 38.048C62.7499 38.368 60.5419 38.528 57.9499 38.528C56.3179 38.528 54.8299 38.384 53.4859 38.096C52.1739 37.808 51.0379 37.344 50.0779 36.704C49.1179 36.032 48.3819 35.168 47.8699 34.112C47.3579 33.056 47.1019 31.76 47.1019 30.224C47.1019 28.752 47.3899 27.504 47.9659 26.48C48.5739 25.456 49.3739 24.64 50.3659 24.032C51.3579 23.424 52.4939 22.992 53.7739 22.736C55.0539 22.448 56.3819 22.304 57.7579 22.304C58.6859 22.304 59.5019 22.352 60.2059 22.448C60.9419 22.512 61.5339 22.608 61.9819 22.736V22.064C61.9819 20.848 61.6139 19.872 60.8779 19.136C60.1419 18.4 58.8619 18.032 57.0379 18.032C55.8219 18.032 54.6219 18.128 53.4379 18.32C52.2539 18.48 51.2299 18.72 50.3659 19.04L49.4539 13.28C49.8699 13.152 50.3819 13.024 50.9899 12.896C51.6299 12.736 52.3179 12.608 53.0539 12.512C53.7899 12.384 54.5579 12.288 55.3579 12.224C56.1899 12.128 57.0219 12.08 57.8539 12.08ZM97.1198 12.752C95.6798 17.616 94.1758 22.176 92.6078 26.432C91.0398 30.688 89.3278 34.816 87.4718 38.816C86.7998 40.256 86.1278 41.472 85.4557 42.464C84.7838 43.488 84.0478 44.32 83.2478 44.96C82.4478 45.632 81.5358 46.112 80.5118 46.4C79.5198 46.72 78.3518 46.88 77.0078 46.88C75.8878 46.88 74.8478 46.768 73.8878 46.544C72.9598 46.352 72.1918 46.128 71.5838 45.872L72.8318 40.16C73.5678 40.416 74.2238 40.592 74.7998 40.688C75.3758 40.784 75.9838 40.832 76.6238 40.832C77.9038 40.832 78.8798 40.48 79.5518 39.776C80.2558 39.104 80.8478 38.16 81.3278 36.944C79.6958 33.744 78.0638 30.16 76.4318 26.192C74.7998 22.192 73.2638 17.712 71.8238 12.752H79.4078C79.7278 14 80.0958 15.36 80.5118 16.832C80.9598 18.272 81.4238 19.744 81.9038 21.248C82.3838 22.72 82.8638 24.16 83.3438 25.568C83.8558 26.976 84.3358 28.256 84.7838 29.408C85.1998 28.256 85.6318 26.976 86.0798 25.568C86.5278 24.16 86.9598 22.72 87.3758 21.248C87.8238 19.744 88.2398 18.272 88.6238 16.832C89.0398 15.36 89.4078 14 89.7278 12.752H97.1198Z" fill="white"/>
</svg>
